<svg width="100%" viewBox="0 0 760 410" xmlns="http://www.w3.org/2000/svg" role="img">
<title>Dark timeline diagram</title>
<desc>Timeline graph generated from JSON spec</desc>
<defs>
    <marker id="arrow" viewBox="0 0 10 10" refX="8" refY="5" markerWidth="6" markerHeight="6" orient="auto-start-reverse">
      <path d="M2 1L8 5L2 9" fill="none" stroke="context-stroke" stroke-width="1.5" stroke-linecap="round" stroke-linejoin="round"/>
    </marker>
  </defs>
<text x="380" y="22" text-anchor="middle" font-family="sans-serif" font-size="13px" font-weight="500" fill="#c2c0b6">Time →</text>
<line x1="50" y1="32" x2="740" y2="32" stroke="#888780" stroke-width="0.5" opacity="0.4"/>
<line x1="141.11111111111111" y1="32" x2="141.11111111111111" y2="36" stroke="#888780" stroke-width="0.5" opacity="0.5"/>
<text x="141.11111111111111" y="46" text-anchor="middle" font-family="sans-serif" font-size="10px" fill="#888780">1900</text>
<line x1="230" y1="32" x2="230" y2="36" stroke="#888780" stroke-width="0.5" opacity="0.5"/>
<text x="230" y="46" text-anchor="middle" font-family="sans-serif" font-size="10px" fill="#888780">1925</text>
<line x1="318.8888888888889" y1="32" x2="318.8888888888889" y2="36" stroke="#888780" stroke-width="0.5" opacity="0.5"/>
<text x="318.8888888888889" y="46" text-anchor="middle" font-family="sans-serif" font-size="10px" fill="#888780">1950</text>
<line x1="407.77777777777777" y1="32" x2="407.77777777777777" y2="36" stroke="#888780" stroke-width="0.5" opacity="0.5"/>
<text x="407.77777777777777" y="46" text-anchor="middle" font-family="sans-serif" font-size="10px" fill="#888780">1975</text>
<line x1="496.66666666666663" y1="32" x2="496.66666666666663" y2="36" stroke="#888780" stroke-width="0.5" opacity="0.5"/>
<text x="496.66666666666663" y="46" text-anchor="middle" font-family="sans-serif" font-size="10px" fill="#888780">2000</text>
<line x1="585.5555555555555" y1="32" x2="585.5555555555555" y2="36" stroke="#888780" stroke-width="0.5" opacity="0.5"/>
<text x="585.5555555555555" y="46" text-anchor="middle" font-family="sans-serif" font-size="10px" fill="#888780">2025</text>
<line x1="674.4444444444445" y1="32" x2="674.4444444444445" y2="36" stroke="#888780" stroke-width="0.5" opacity="0.5"/>
<text x="674.4444444444445" y="46" text-anchor="middle" font-family="sans-serif" font-size="10px" fill="#888780">2050</text>
<circle cx="446.8888888888889" cy="120" r="20" fill="none" stroke="#EF9F27" stroke-width="1.5" stroke-dasharray="3 2" opacity="0.7"/>
<circle cx="215.77777777777777" cy="120" r="12" fill="none" stroke="#EF9F27" stroke-width="1.5" stroke-dasharray="3 2" opacity="0.7"/>
<circle cx="638.8888888888889" cy="50" r="12" fill="none" stroke="#EF9F27" stroke-width="1.5" stroke-dasharray="3 2" opacity="0.7"/>
<circle cx="685.1111111111111" cy="120" r="12" fill="none" stroke="#EF9F27" stroke-width="1.5" stroke-dasharray="3 2" opacity="0.7"/>
<path d="M 70.0 50.0 L 393.9 50.0 C 428.3 50.0, 441.6 120.0, 446.9 120.0 C 452.2 120.0, 465.4 50.0, 499.9 50.0 L 710.0 50.0" fill="none" stroke="#D4537E" stroke-width="1.5" stroke-linejoin="round" marker-end="url(#arrow)"/>
<text x="62" y="50" text-anchor="end" dominant-baseline="central" font-family="sans-serif" font-size="13px" font-weight="500" fill="#D4537E">Eva</text>
<path d="M 70.0 120.0 L 393.9 120.0 C 428.3 120.0, 441.6 120.0, 446.9 120.0 C 452.2 120.0, 465.4 120.0, 499.9 120.0 L 710.0 120.0" fill="none" stroke="#378ADD" stroke-width="1.5" stroke-linejoin="round" marker-end="url(#arrow)"/>
<text x="62" y="120" text-anchor="end" dominant-baseline="central" font-family="sans-serif" font-size="13px" font-weight="500" fill="#378ADD">Adam</text>
<path d="M 70.0 190.0 L 393.9 190.0 C 428.3 190.0, 441.6 120.0, 446.9 120.0" fill="none" stroke="#888780" stroke-width="2" stroke-linejoin="round"/>
<text x="62" y="190" text-anchor="end" dominant-baseline="central" font-family="sans-serif" font-size="13px" font-weight="500" fill="#888780">Origin</text>
<path d="M 393.6 190.0 C 398.9 190.0, 428.0 260.0, 446.6 260.0 L 710.0 260.0" fill="none" stroke="#1D9E75" stroke-width="1.5" stroke-linejoin="round" marker-end="url(#arrow)"/>
<text x="62" y="260" text-anchor="end" dominant-baseline="central" font-family="sans-serif" font-size="13px" font-weight="500" fill="#1D9E75">Paradise</text>
<line x1="98.4" y1="120.0" x2="215.8" y2="120.0" stroke="#378ADD" stroke-width="5" stroke-linecap="round" opacity="0.35"/>
<text x="157.1" y="134.0" text-anchor="middle" font-family="sans-serif" font-size="9px" font-style="italic" fill="#378ADD" opacity="0.8">Sic Mundus</text>
<line x1="567.8" y1="120.0" x2="685.1" y2="120.0" stroke="#378ADD" stroke-width="5" stroke-linecap="round" opacity="0.35"/>
<text x="626.4" y="134.0" text-anchor="middle" font-family="sans-serif" font-size="9px" font-style="italic" fill="#378ADD" opacity="0.8">Post-Apocalypse</text>
<line x1="567.8" y1="50.0" x2="681.6" y2="50.0" stroke="#D4537E" stroke-width="5" stroke-linecap="round" opacity="0.35"/>
<text x="624.7" y="64.0" text-anchor="middle" font-family="sans-serif" font-size="9px" font-style="italic" fill="#D4537E" opacity="0.8">Erit Lux</text>
<path d="M 446.8888888888889 120 Q 388.22222222222223 156, 329.55555555555554 120" fill="none" stroke="#378ADD" stroke-width="1.2" stroke-dasharray="3 2" opacity="0.85"/>
<line x1="329.55555555555554" y1="115" x2="329.55555555555554" y2="125" stroke="#378ADD" stroke-width="2" stroke-linecap="round"/>
<text x="329.55555555555554" y="136" text-anchor="middle" font-family="sans-serif" font-size="10px" fill="#888780">1953</text>
<path d="M 446.8888888888889 120 Q 505.55555555555554 156, 564.2222222222222 120" fill="none" stroke="#378ADD" stroke-width="1.2" stroke-dasharray="3 2" opacity="0.85"/>
<line x1="564.2222222222222" y1="115" x2="564.2222222222222" y2="125" stroke="#378ADD" stroke-width="2" stroke-linecap="round"/>
<text x="564.2222222222222" y="136" text-anchor="middle" font-family="sans-serif" font-size="10px" fill="#888780">2019</text>
<circle cx="567.7777777777778" cy="120" r="3.5" fill="none" stroke="#378ADD" stroke-width="1.5"/>
<text x="567.7777777777778" y="110" text-anchor="middle" font-family="sans-serif" font-size="10px" font-weight="500" fill="#378ADD">2020</text>
<path d="M 567.7777777777778 120 Q 626.4444444444445 84, 685.1111111111111 120" fill="none" stroke="#378ADD" stroke-width="1.2" stroke-dasharray="3 2" opacity="0.85"/>
<text x="685.1111111111111" y="110" text-anchor="middle" font-family="sans-serif" font-size="10px" fill="#888780">2053</text>
<path d="M 446.8888888888889 120 Q 505.55555555555554 86, 564.2222222222222 50" fill="none" stroke="#D4537E" stroke-width="1.2" stroke-dasharray="3 2" opacity="0.85"/>
<line x1="564.2222222222222" y1="45" x2="564.2222222222222" y2="55" stroke="#D4537E" stroke-width="2" stroke-linecap="round"/>
<text x="564.2222222222222" y="66" text-anchor="middle" font-family="sans-serif" font-size="10px" fill="#888780">2019</text>
<path d="M 446.8888888888889 120 Q 564.2222222222222 86, 681.5555555555555 50" fill="none" stroke="#D4537E" stroke-width="1.2" stroke-dasharray="3 2" opacity="0.85"/>
<line x1="681.5555555555555" y1="45" x2="681.5555555555555" y2="55" stroke="#D4537E" stroke-width="2" stroke-linecap="round"/>
<text x="681.5555555555555" y="66" text-anchor="middle" font-family="sans-serif" font-size="10px" fill="#888780">2052</text>
<path d="M 446.8888888888889 120 Q 420.22222222222223 214.00000000000003, 393.55555555555554 190" fill="none" stroke="#888780" stroke-width="1.2" stroke-dasharray="3 2" opacity="0.85"/>
<circle cx="393.55555555555554" cy="190" r="3.5" fill="none" stroke="#888780" stroke-width="1.5"/>
<text x="393.55555555555554" y="206" text-anchor="middle" font-family="sans-serif" font-size="10px" fill="#888780">1971</text>
<line x1="567.7777777777778" y1="120" x2="564.2222222222222" y2="50" stroke="#D85A30" stroke-width="2.5"/>
<text x="574" y="85" dominant-baseline="central" font-family="sans-serif" font-size="11px" font-weight="500" fill="#993C1D">Apocalypse</text>
<circle cx="446.8888888888889" cy="120" r="5" fill="#EF9F27"/>
<text x="446.8888888888889" y="154" text-anchor="middle" font-family="sans-serif" font-size="11px" font-weight="500" fill="#854F0B">Tannhaus Event (1986)</text>
<circle cx="215.77777777777777" cy="120" r="3.5" fill="#EF9F27"/>
<text x="215.77777777777777" y="144" text-anchor="middle" font-family="sans-serif" font-size="10px" fill="#854F0B">Portal (1921)</text>
<circle cx="638.8888888888889" cy="50" r="3.5" fill="#EF9F27"/>
<text x="638.8888888888889" y="74" text-anchor="middle" font-family="sans-serif" font-size="10px" fill="#854F0B">Portal (2040)</text>
<circle cx="685.1111111111111" cy="120" r="3.5" fill="#EF9F27"/>
<text x="685.1111111111111" y="144" text-anchor="middle" font-family="sans-serif" font-size="10px" fill="#854F0B">Portal (2053)</text>
<circle cx="98.44444444444444" cy="120" r="4" fill="#D85A30"/>
<circle cx="155.33333333333331" cy="120" r="4" fill="#D85A30"/>
<circle cx="176.66666666666666" cy="120" r="4" fill="#D85A30"/>
<circle cx="404.22222222222223" cy="190" r="4" fill="#D85A30"/>
<circle cx="638.8888888888889" cy="120" r="4" fill="#D85A30"/>
<circle cx="564.2222222222222" cy="260" r="4" fill="#D85A30"/>
</svg>