<svg width="100%" viewBox="0 0 760 410" xmlns="http://www.w3.org/2000/svg" role="img">
<title>Dark timeline diagram</title>
<desc>Timeline graph generated from JSON spec</desc>
<rect x="0" y="0" width="760" height="410" fill="#141418"/>
<defs>
    <marker id="arrow" viewBox="0 0 10 10" refX="8" refY="5" markerWidth="6" markerHeight="6" orient="auto-start-reverse">
      <path d="M2 1L8 5L2 9" fill="none" stroke="context-stroke" stroke-width="1.5" stroke-linecap="round" stroke-linejoin="round"/>
    </marker>
  </defs>
<text x="380" y="20" text-anchor="middle" font-family="sans-serif" font-size="10px" letter-spacing="1" fill="#888780" opacity="0.7">TIME →</text>
<line x1="50" y1="28" x2="740" y2="28" stroke="#888780" stroke-width="0.5" opacity="0.3"/>
<line x1="141.11111111111111" y1="28" x2="141.11111111111111" y2="32" stroke="#888780" stroke-width="0.5" opacity="0.4"/>
<text x="141.11111111111111" y="42" text-anchor="middle" font-family="sans-serif" font-size="9px" fill="#888780" opacity="0.7">1900</text>
<line x1="230" y1="28" x2="230" y2="32" stroke="#888780" stroke-width="0.5" opacity="0.4"/>
<text x="230" y="42" text-anchor="middle" font-family="sans-serif" font-size="9px" fill="#888780" opacity="0.7">1925</text>
<line x1="318.8888888888889" y1="28" x2="318.8888888888889" y2="32" stroke="#888780" stroke-width="0.5" opacity="0.4"/>
<text x="318.8888888888889" y="42" text-anchor="middle" font-family="sans-serif" font-size="9px" fill="#888780" opacity="0.7">1950</text>
<line x1="407.77777777777777" y1="28" x2="407.77777777777777" y2="32" stroke="#888780" stroke-width="0.5" opacity="0.4"/>
<text x="407.77777777777777" y="42" text-anchor="middle" font-family="sans-serif" font-size="9px" fill="#888780" opacity="0.7">1975</text>
<line x1="496.66666666666663" y1="28" x2="496.66666666666663" y2="32" stroke="#888780" stroke-width="0.5" opacity="0.4"/>
<text x="496.66666666666663" y="42" text-anchor="middle" font-family="sans-serif" font-size="9px" fill="#888780" opacity="0.7">2000</text>
<line x1="585.5555555555555" y1="28" x2="585.5555555555555" y2="32" stroke="#888780" stroke-width="0.5" opacity="0.4"/>
<text x="585.5555555555555" y="42" text-anchor="middle" font-family="sans-serif" font-size="9px" fill="#888780" opacity="0.7">2025</text>
<line x1="674.4444444444445" y1="28" x2="674.4444444444445" y2="32" stroke="#888780" stroke-width="0.5" opacity="0.4"/>
<text x="674.4444444444445" y="42" text-anchor="middle" font-family="sans-serif" font-size="9px" fill="#888780" opacity="0.7">2050</text>
<circle cx="446.8888888888889" cy="120" r="20" fill="none" stroke="#EF9F27" stroke-width="1.5" stroke-dasharray="3 2" opacity="0.7"/>
<circle cx="215.77777777777777" cy="120" r="12" fill="none" stroke="#EF9F27" stroke-width="1.5" stroke-dasharray="3 2" opacity="0.7"/>
<circle cx="685.1111111111111" cy="120" r="12" fill="none" stroke="#EF9F27" stroke-width="1.5" stroke-dasharray="3 2" opacity="0.7"/>
<path d="M 70.0 50.0 L 393.9 50.0 C 428.3 50.0, 441.6 120.0, 446.9 120.0 C 452.2 120.0, 465.4 50.0, 499.9 50.0 L 710.0 50.0" fill="none" stroke="#D4537E" stroke-width="1.5" stroke-linejoin="round" marker-end="url(#arrow)"/>
<text x="62" y="50" text-anchor="end" dominant-baseline="central" font-family="sans-serif" font-size="13px" font-weight="500" fill="#D4537E">Eva</text>
<path d="M 70.0 120.0 L 393.9 120.0 C 428.3 120.0, 441.6 120.0, 446.9 120.0 C 452.2 120.0, 465.4 120.0, 499.9 120.0 L 710.0 120.0" fill="none" stroke="#378ADD" stroke-width="1.5" stroke-linejoin="round" marker-end="url(#arrow)"/>
<text x="62" y="120" text-anchor="end" dominant-baseline="central" font-family="sans-serif" font-size="13px" font-weight="500" fill="#378ADD">Adam</text>
<path d="M 70.0 190.0 L 393.9 190.0 C 428.3 190.0, 441.6 120.0, 446.9 120.0" fill="none" stroke="#888780" stroke-width="2" stroke-linejoin="round"/>
<text x="62" y="190" text-anchor="end" dominant-baseline="central" font-family="sans-serif" font-size="13px" font-weight="500" fill="#888780">Origin</text>
<path d="M 393.6 190.0 C 398.9 190.0, 428.0 260.0, 446.6 260.0 L 710.0 260.0" fill="none" stroke="#1D9E75" stroke-width="1.5" stroke-linejoin="round" marker-end="url(#arrow)"/>
<text x="62" y="260" text-anchor="end" dominant-baseline="central" font-family="sans-serif" font-size="13px" font-weight="500" fill="#1D9E75">Paradise</text>
<line x1="98.4" y1="120.0" x2="215.8" y2="120.0" stroke="#378ADD" stroke-width="5" stroke-linecap="round" opacity="0.35"/>
<text x="157.1" y="134.0" text-anchor="middle" font-family="sans-serif" font-size="8px" font-style="italic" letter-spacing="0.5" fill="#378ADD" opacity="0.75">Sic Mundus</text>
<line x1="567.8" y1="120.0" x2="685.1" y2="120.0" stroke="#378ADD" stroke-width="5" stroke-linecap="round" opacity="0.35"/>
<text x="626.4" y="134.0" text-anchor="middle" font-family="sans-serif" font-size="8px" font-style="italic" letter-spacing="0.5" fill="#378ADD" opacity="0.75">Post-Apocalypse</text>
<line x1="567.8" y1="50.0" x2="681.6" y2="50.0" stroke="#D4537E" stroke-width="5" stroke-linecap="round" opacity="0.35"/>
<text x="624.7" y="64.0" text-anchor="middle" font-family="sans-serif" font-size="8px" font-style="italic" letter-spacing="0.5" fill="#D4537E" opacity="0.75">Erit Lux</text>
<path d="M 446.8888888888889 120 Q 388.22222222222223 156, 329.55555555555554 120" fill="none" stroke="#378ADD" stroke-width="1.2" stroke-dasharray="3 2" opacity="0.85"/>
<line x1="329.55555555555554" y1="115" x2="329.55555555555554" y2="125" stroke="#378ADD" stroke-width="2" stroke-linecap="round"/>
<text x="329.55555555555554" y="135" text-anchor="middle" font-family="sans-serif" font-size="9px" fill="#888780" opacity="0.85">1953</text>
<path d="M 446.8888888888889 120 Q 505.55555555555554 156, 564.2222222222222 120" fill="none" stroke="#378ADD" stroke-width="1.2" stroke-dasharray="3 2" opacity="0.85"/>
<line x1="564.2222222222222" y1="115" x2="564.2222222222222" y2="125" stroke="#378ADD" stroke-width="2" stroke-linecap="round"/>
<text x="564.2222222222222" y="135" text-anchor="middle" font-family="sans-serif" font-size="9px" fill="#888780" opacity="0.85">2019</text>
<path d="M 446.8888888888889 119.9999999999998 Q 505.55555555555554 120.9999999999999, 564.2222222222222 50" fill="none" stroke="#D4537E" stroke-width="1.2" stroke-dasharray="3 2" opacity="0.85"/>
<line x1="564.2222222222222" y1="45" x2="564.2222222222222" y2="55" stroke="#D4537E" stroke-width="2" stroke-linecap="round"/>
<text x="564.2222222222222" y="65" text-anchor="middle" font-family="sans-serif" font-size="9px" fill="#888780" opacity="0.85">2019</text>
<path d="M 446.8888888888889 119.9999999999998 Q 564.2222222222222 120.9999999999999, 681.5555555555555 50" fill="none" stroke="#D4537E" stroke-width="1.2" stroke-dasharray="3 2" opacity="0.85"/>
<line x1="681.5555555555555" y1="45" x2="681.5555555555555" y2="55" stroke="#D4537E" stroke-width="2" stroke-linecap="round"/>
<text x="681.5555555555555" y="65" text-anchor="middle" font-family="sans-serif" font-size="9px" fill="#888780" opacity="0.85">2052</text>
<path d="M 446.8888888888889 120.00000000000018 Q 420.22222222222223 136.3333333333334, 393.55555555555554 190" fill="none" stroke="#888780" stroke-width="1.2" stroke-dasharray="3 2" opacity="0.85"/>
<circle cx="393.55555555555554" cy="190" r="3.5" fill="none" stroke="#888780" stroke-width="1.5"/>
<text x="393.55555555555554" y="180" text-anchor="middle" font-family="sans-serif" font-size="9px" fill="#888780" opacity="0.85">1971</text>
<path id="travel-arc-0" d="M 564.2 120.0 Q 505.6 98.9, 446.9 120.0" fill="none" stroke="#A87DD4" stroke-width="1" stroke-dasharray="4 3" opacity="0.6"/>
<path id="travel-arc-1" d="M 446.9 120.0 Q 505.6 141.1, 564.2 120.0" fill="none" stroke="#A87DD4" stroke-width="1" stroke-dasharray="4 3" opacity="0.6"/>
<path id="travel-arc-2" d="M 564.2 120.0 Q 505.6 98.9, 446.9 120.0" fill="none" stroke="#A87DD4" stroke-width="1" stroke-dasharray="4 3" opacity="0.6"/>
<path id="travel-arc-3" d="M 446.9 120.0 Q 564.2 162.2, 681.6 120.0" fill="none" stroke="#A87DD4" stroke-width="1" stroke-dasharray="4 3" opacity="0.6"/>
<path id="travel-arc-4" d="M 685.1 120.0 Q 450.4 35.5, 215.8 120.0" fill="none" stroke="#A87DD4" stroke-width="1" stroke-dasharray="4 3" opacity="0.6"/>
<path id="travel-arc-5" d="M 215.8 120.0 Q 390.0 182.7, 564.2 120.0" fill="none" stroke="#A87DD4" stroke-width="1" stroke-dasharray="4 3" opacity="0.6"/>
<path id="travel-arc-6" d="M 567.8 120.0 Q 509.1 98.9, 450.4 120.0" fill="none" stroke="#A87DD4" stroke-width="1" stroke-dasharray="4 3" opacity="0.6"/>
<path id="travel-arc-7" d="M 450.4 120.0 Q 509.1 141.1, 567.8 120.0" fill="none" stroke="#A87DD4" stroke-width="1" stroke-dasharray="4 3" opacity="0.6"/>
<path id="travel-arc-8" d="M 681.6 120.0 Q 622.9 98.9, 564.2 120.0" fill="none" stroke="#A87DD4" stroke-width="1" stroke-dasharray="4 3" opacity="0.6"/>
<path id="travel-arc-9" d="M 564.2 120.0 Q 505.6 98.9, 446.9 120.0" fill="none" stroke="#A87DD4" stroke-width="1" stroke-dasharray="4 3" opacity="0.6"/>
<path id="travel-arc-10" d="M 446.9 120.0 Q 505.6 141.1, 564.2 120.0" fill="none" stroke="#A87DD4" stroke-width="1" stroke-dasharray="4 3" opacity="0.6"/>
<path id="travel-arc-11" d="M 564.2 120.0 Q 505.6 98.9, 446.9 120.0" fill="none" stroke="#A87DD4" stroke-width="1" stroke-dasharray="4 3" opacity="0.6"/>
<path id="travel-arc-12" d="M 446.9 120.0 Q 505.6 141.1, 564.2 120.0" fill="none" stroke="#A87DD4" stroke-width="1" stroke-dasharray="4 3" opacity="0.6"/>
<path id="travel-arc-13" d="M 567.8 120.0 Q 509.1 98.9, 450.4 120.0" fill="none" stroke="#A87DD4" stroke-width="1" stroke-dasharray="4 3" opacity="0.6"/>
<path id="travel-arc-14" d="M 450.4 120.0 Q 509.1 141.1, 567.8 120.0" fill="none" stroke="#A87DD4" stroke-width="1" stroke-dasharray="4 3" opacity="0.6"/>
<path id="travel-arc-15" d="M 567.8 120.0 Q 333.1 35.5, 98.4 120.0" fill="none" stroke="#A87DD4" stroke-width="1" stroke-dasharray="4 3" opacity="0.6"/>
<path id="travel-arc-16" d="M 215.8 120.0 Q 391.8 183.4, 567.8 120.0" fill="none" stroke="#A87DD4" stroke-width="1" stroke-dasharray="4 3" opacity="0.6"/>
<path id="travel-arc-17" d="M 567.8 120.0 Q 626.4 141.1, 685.1 120.0" fill="none" stroke="#A87DD4" stroke-width="1" stroke-dasharray="4 3" opacity="0.6"/>
<path id="travel-arc-18" d="M 567.8 120.0 Q 566.0 46.5, 564.2 50.0" fill="none" stroke="#c0a1e0" stroke-width="1" stroke-dasharray="4 3" opacity="0.6"/>
<path id="travel-arc-19" d="M 564.2 50.0 Q 622.9 71.1, 681.6 50.0" fill="none" stroke="#c0a1e0" stroke-width="1" stroke-dasharray="4 3" opacity="0.6"/>
<path id="travel-arc-20" d="M 681.6 50.0 Q 622.9 28.9, 564.2 50.0" fill="none" stroke="#c0a1e0" stroke-width="1" stroke-dasharray="4 3" opacity="0.6"/>
<line x1="567.8" y1="38.0" x2="567.8" y2="272.0" stroke="#D85A30" stroke-width="5" opacity="0.08"/>
<line x1="567.8" y1="38.0" x2="567.8" y2="272.0" stroke="#D85A30" stroke-width="1" opacity="0.55"/>
<text transform="rotate(-90,557.8,155.0)" x="557.8" y="155.0" text-anchor="middle" font-family="sans-serif" font-size="8px" font-style="italic" letter-spacing="0.5" fill="#D85A30" opacity="0.7">Apocalypse</text>
<line x1="98.4" y1="34.0" x2="98.4" y2="276.0" stroke="#C8A951" stroke-width="0.75" stroke-dasharray="2 5" opacity="0.38"/>
<text x="98.4" y="287.0" text-anchor="middle" font-family="sans-serif" font-size="7px" letter-spacing="0.5" fill="#C8A951" opacity="0.55">−3</text>
<line x1="215.8" y1="34.0" x2="215.8" y2="276.0" stroke="#C8A951" stroke-width="0.75" stroke-dasharray="2 5" opacity="0.38"/>
<text x="215.8" y="287.0" text-anchor="middle" font-family="sans-serif" font-size="7px" letter-spacing="0.5" fill="#C8A951" opacity="0.55">−2</text>
<line x1="329.6" y1="34.0" x2="329.6" y2="276.0" stroke="#C8A951" stroke-width="0.75" stroke-dasharray="2 5" opacity="0.38"/>
<text x="329.6" y="287.0" text-anchor="middle" font-family="sans-serif" font-size="7px" letter-spacing="0.5" fill="#C8A951" opacity="0.55">−1</text>
<line x1="446.9" y1="34.0" x2="446.9" y2="276.0" stroke="#C8A951" stroke-width="0.75" stroke-dasharray="2 5" opacity="0.38"/>
<text x="446.9" y="287.0" text-anchor="middle" font-family="sans-serif" font-size="7px" letter-spacing="0.5" fill="#C8A951" opacity="0.55">0</text>
<line x1="564.2" y1="34.0" x2="564.2" y2="276.0" stroke="#C8A951" stroke-width="0.75" stroke-dasharray="2 5" opacity="0.38"/>
<text x="564.2" y="287.0" text-anchor="middle" font-family="sans-serif" font-size="7px" letter-spacing="0.5" fill="#C8A951" opacity="0.55">+1</text>
<line x1="681.6" y1="34.0" x2="681.6" y2="276.0" stroke="#C8A951" stroke-width="0.75" stroke-dasharray="2 5" opacity="0.38"/>
<text x="681.6" y="287.0" text-anchor="middle" font-family="sans-serif" font-size="7px" letter-spacing="0.5" fill="#C8A951" opacity="0.55">+2</text>
<circle cx="446.8888888888889" cy="120" r="5" fill="#EF9F27"/>
<text x="446.8888888888889" y="152" text-anchor="middle" font-family="sans-serif" font-size="10px" font-weight="600" fill="#854F0B">Tannhaus Event</text>
<text x="446.8888888888889" y="163" text-anchor="middle" font-family="sans-serif" font-size="8px" fill="#854F0B" opacity="0.7">1986</text>
<circle cx="215.77777777777777" cy="120" r="3.5" fill="#EF9F27"/>
<text x="215.77777777777777" y="143" text-anchor="middle" font-family="sans-serif" font-size="9px" fill="#854F0B">Portal</text>
<text x="215.77777777777777" y="153" text-anchor="middle" font-family="sans-serif" font-size="8px" fill="#854F0B" opacity="0.7">1921</text>
<circle cx="685.1111111111111" cy="120" r="3.5" fill="#EF9F27"/>
<text x="685.1111111111111" y="143" text-anchor="middle" font-family="sans-serif" font-size="9px" fill="#854F0B">Portal</text>
<text x="685.1111111111111" y="153" text-anchor="middle" font-family="sans-serif" font-size="8px" fill="#854F0B" opacity="0.7">2053</text>
<circle cx="98.4" cy="120.0" r="3" fill="#378ADD" stroke="white" stroke-width="1.5" stroke-opacity="0.35"/>
<circle cx="105.6" cy="120.0" r="3" fill="#378ADD" stroke="white" stroke-width="1.5" stroke-opacity="0.35"/>
<circle cx="155.3" cy="120.0" r="3" fill="#378ADD" stroke="white" stroke-width="1.5" stroke-opacity="0.35"/>
<circle cx="176.7" cy="120.0" r="3" fill="#378ADD" stroke="white" stroke-width="1.5" stroke-opacity="0.35"/>
<circle cx="180.2" cy="120.0" r="3" fill="#378ADD" stroke="white" stroke-width="1.5" stroke-opacity="0.35"/>
<circle cx="404.2" cy="187.8" r="3" fill="#888780" stroke="white" stroke-width="1.5" stroke-opacity="0.35"/>
<circle cx="638.9" cy="120.0" r="3" fill="#378ADD" stroke="white" stroke-width="1.5" stroke-opacity="0.35"/>
<circle cx="681.6" cy="120.0" r="3" fill="#378ADD" stroke="white" stroke-width="1.5" stroke-opacity="0.35"/>
<circle cx="567.8" cy="260.0" r="3" fill="#1D9E75" stroke="white" stroke-width="1.5" stroke-opacity="0.35"/>
<g id="annot-0" display="none">
<rect x="65.0" y="76.0" width="130.0" height="34" rx="4" fill="black" opacity="0.2"/>
<path d="M 98.4 116 L 93.4 108 L 103.4 108 Z" fill="#1c1c1c"/>
<rect x="64.0" y="74.0" width="130.0" height="34" rx="4" fill="#1c1c1c"/>
<text x="129.0" y="88.0" text-anchor="middle" font-family="sans-serif" font-size="10px" font-weight="500" fill="#378ADD">Sic Mundus founded</text>
<text x="129.0" y="101.0" text-anchor="middle" font-family="sans-serif" font-size="9px" fill="rgba(255,255,255,0.45)">1888</text>
</g>
<g id="annot-1" display="none">
<rect x="65.0" y="76.0" width="100.0" height="34" rx="4" fill="black" opacity="0.2"/>
<path d="M 105.6 116 L 100.6 108 L 110.6 108 Z" fill="#1c1c1c"/>
<rect x="64.0" y="74.0" width="100.0" height="34" rx="4" fill="#1c1c1c"/>
<text x="114.0" y="88.0" text-anchor="middle" font-family="sans-serif" font-size="10px" font-weight="500" fill="#378ADD">Silja arrives</text>
<text x="114.0" y="101.0" text-anchor="middle" font-family="sans-serif" font-size="9px" fill="rgba(255,255,255,0.45)">1890</text>
</g>
<g id="annot-2" display="none">
<rect x="106.3" y="76.0" width="100.0" height="34" rx="4" fill="black" opacity="0.2"/>
<path d="M 155.3 116 L 150.3 108 L 160.3 108 Z" fill="#1c1c1c"/>
<rect x="105.3" y="74.0" width="100.0" height="34" rx="4" fill="#1c1c1c"/>
<text x="155.3" y="88.0" text-anchor="middle" font-family="sans-serif" font-size="10px" font-weight="500" fill="#378ADD">Hanno is born</text>
<text x="155.3" y="101.0" text-anchor="middle" font-family="sans-serif" font-size="9px" fill="rgba(255,255,255,0.45)">1904</text>
</g>
<g id="annot-3" display="none">
<rect x="127.7" y="76.0" width="100.0" height="34" rx="4" fill="black" opacity="0.2"/>
<path d="M 176.7 116 L 171.7 108 L 181.7 108 Z" fill="#1c1c1c"/>
<rect x="126.7" y="74.0" width="100.0" height="34" rx="4" fill="#1c1c1c"/>
<text x="176.7" y="88.0" text-anchor="middle" font-family="sans-serif" font-size="10px" font-weight="500" fill="#378ADD">Agnes is born</text>
<text x="176.7" y="101.0" text-anchor="middle" font-family="sans-serif" font-size="9px" fill="rgba(255,255,255,0.45)">1910</text>
</g>
<g id="annot-4" display="none">
<rect x="116.2" y="76.0" width="130.0" height="34" rx="4" fill="black" opacity="0.2"/>
<path d="M 180.2 116 L 175.2 108 L 185.2 108 Z" fill="#1c1c1c"/>
<rect x="115.2" y="74.0" width="130.0" height="34" rx="4" fill="#1c1c1c"/>
<text x="180.2" y="88.0" text-anchor="middle" font-family="sans-serif" font-size="10px" font-weight="500" fill="#378ADD">Jonas becomes Adam</text>
<text x="180.2" y="101.0" text-anchor="middle" font-family="sans-serif" font-size="9px" fill="rgba(255,255,255,0.45)">1911</text>
</g>
<g id="annot-5" display="none">
<rect x="325.2" y="143.8" width="160.0" height="34" rx="4" fill="black" opacity="0.2"/>
<path d="M 404.2 183.77308157584878 L 399.2 175.77308157584878 L 409.2 175.77308157584878 Z" fill="#1c1c1c"/>
<rect x="324.2" y="141.8" width="160.0" height="34" rx="4" fill="#1c1c1c"/>
<text x="404.2" y="155.8" text-anchor="middle" font-family="sans-serif" font-size="10px" font-weight="500" fill="#888780">Tannhaus begins machine</text>
<text x="404.2" y="168.8" text-anchor="middle" font-family="sans-serif" font-size="9px" fill="rgba(255,255,255,0.45)">1974</text>
</g>
<g id="annot-6" display="none">
<rect x="533.0" y="76.0" width="184.0" height="34" rx="4" fill="black" opacity="0.2"/>
<path d="M 638.9 116 L 633.9 108 L 643.9 108 Z" fill="#1c1c1c"/>
<rect x="532.0" y="74.0" width="184.0" height="34" rx="4" fill="#1c1c1c"/>
<text x="624.0" y="88.0" text-anchor="middle" font-family="sans-serif" font-size="10px" font-weight="500" fill="#378ADD">Claudia stabilizes particle</text>
<text x="624.0" y="101.0" text-anchor="middle" font-family="sans-serif" font-size="9px" fill="rgba(255,255,255,0.45)">2040</text>
</g>
<g id="annot-7" display="none">
<rect x="563.0" y="76.0" width="154.0" height="34" rx="4" fill="black" opacity="0.2"/>
<path d="M 681.6 116 L 676.6 108 L 686.6 108 Z" fill="#1c1c1c"/>
<rect x="562.0" y="74.0" width="154.0" height="34" rx="4" fill="#1c1c1c"/>
<text x="639.0" y="88.0" text-anchor="middle" font-family="sans-serif" font-size="10px" font-weight="500" fill="#378ADD">(Bunker) Jonas arrives</text>
<text x="639.0" y="101.0" text-anchor="middle" font-family="sans-serif" font-size="9px" fill="rgba(255,255,255,0.45)">2052</text>
</g>
<g id="annot-8" display="none">
<rect x="515.8" y="216.0" width="106.0" height="34" rx="4" fill="black" opacity="0.2"/>
<path d="M 567.8 256 L 562.8 248 L 572.8 248 Z" fill="#1c1c1c"/>
<rect x="514.8" y="214.0" width="106.0" height="34" rx="4" fill="#1c1c1c"/>
<text x="567.8" y="228.0" text-anchor="middle" font-family="sans-serif" font-size="10px" font-weight="500" fill="#1D9E75">Paradise party</text>
<text x="567.8" y="241.0" text-anchor="middle" font-family="sans-serif" font-size="9px" fill="rgba(255,255,255,0.45)">2020</text>
</g>
</svg>