<svg width="100%" viewBox="0 0 760 510" xmlns="http://www.w3.org/2000/svg" role="img">
<title>Dark timeline diagram</title>
<desc>Timeline graph generated from JSON spec</desc>
<rect x="0" y="0" width="760" height="510" fill="#141418"/>
<defs>
    <marker id="arrow" viewBox="0 0 10 10" refX="8" refY="5" markerWidth="6" markerHeight="6" orient="auto-start-reverse">
      <path d="M2 1L8 5L2 9" fill="none" stroke="context-stroke" stroke-width="1.5" stroke-linecap="round" stroke-linejoin="round"/>
    </marker>
    <filter id="travel-glow" x="-120%" y="-120%" width="340%" height="340%" color-interpolation-filters="sRGB">
      <feGaussianBlur in="SourceGraphic" stdDeviation="5" result="wide"/>
      <feGaussianBlur in="SourceGraphic" stdDeviation="2" result="tight"/>
      <feMerge>
        <feMergeNode in="wide"/>
        <feMergeNode in="tight"/>
        <feMergeNode in="SourceGraphic"/>
      </feMerge>
    </filter>
    <marker id="arrow-mid" viewBox="-11 -6 13 12" refX="0" refY="0" markerWidth="16" markerHeight="16" orient="auto" markerUnits="userSpaceOnUse">
      <path d="M 0 0 L -10 -5 L -6 0 L -10 5 Z" fill="context-stroke" stroke="none"/>
    </marker>
  </defs>
<text x="380" y="20" text-anchor="middle" font-family="sans-serif" font-size="10px" letter-spacing="1" fill="#888780" opacity="0.7">TIME →</text>
<line x1="50" y1="28" x2="740" y2="28" stroke="#888780" stroke-width="0.5" opacity="0.3"/>
<line x1="141.11111111111111" y1="28" x2="141.11111111111111" y2="32" stroke="#888780" stroke-width="0.5" opacity="0.4"/>
<text x="141.11111111111111" y="42" text-anchor="middle" font-family="sans-serif" font-size="9px" fill="#888780" opacity="0.7">1900</text>
<line x1="230" y1="28" x2="230" y2="32" stroke="#888780" stroke-width="0.5" opacity="0.4"/>
<text x="230" y="42" text-anchor="middle" font-family="sans-serif" font-size="9px" fill="#888780" opacity="0.7">1925</text>
<line x1="318.8888888888889" y1="28" x2="318.8888888888889" y2="32" stroke="#888780" stroke-width="0.5" opacity="0.4"/>
<text x="318.8888888888889" y="42" text-anchor="middle" font-family="sans-serif" font-size="9px" fill="#888780" opacity="0.7">1950</text>
<line x1="407.77777777777777" y1="28" x2="407.77777777777777" y2="32" stroke="#888780" stroke-width="0.5" opacity="0.4"/>
<text x="407.77777777777777" y="42" text-anchor="middle" font-family="sans-serif" font-size="9px" fill="#888780" opacity="0.7">1975</text>
<line x1="496.66666666666663" y1="28" x2="496.66666666666663" y2="32" stroke="#888780" stroke-width="0.5" opacity="0.4"/>
<text x="496.66666666666663" y="42" text-anchor="middle" font-family="sans-serif" font-size="9px" fill="#888780" opacity="0.7">2000</text>
<line x1="585.5555555555555" y1="28" x2="585.5555555555555" y2="32" stroke="#888780" stroke-width="0.5" opacity="0.4"/>
<text x="585.5555555555555" y="42" text-anchor="middle" font-family="sans-serif" font-size="9px" fill="#888780" opacity="0.7">2025</text>
<line x1="674.4444444444445" y1="28" x2="674.4444444444445" y2="32" stroke="#888780" stroke-width="0.5" opacity="0.4"/>
<text x="674.4444444444445" y="42" text-anchor="middle" font-family="sans-serif" font-size="9px" fill="#888780" opacity="0.7">2050</text>
<circle cx="446.8888888888889" cy="145" r="20" fill="none" stroke="#EF9F27" stroke-width="1.5" stroke-dasharray="3 2" opacity="0.7"/>
<circle cx="215.77777777777777" cy="145" r="12" fill="none" stroke="#EF9F27" stroke-width="1.5" stroke-dasharray="3 2" opacity="0.7"/>
<circle cx="685.1111111111111" cy="145" r="12" fill="none" stroke="#EF9F27" stroke-width="1.5" stroke-dasharray="3 2" opacity="0.7"/>
<path d="M 70.0 50.0 L 393.9 50.0 C 428.3 50.0, 441.6 145.0, 446.9 145.0 C 452.2 145.0, 465.4 50.0, 499.9 50.0 L 710.0 50.0" fill="none" stroke="#D4537E" stroke-width="1.5" stroke-linejoin="round" marker-end="url(#arrow)"/>
<text x="62" y="50" text-anchor="end" dominant-baseline="central" font-family="sans-serif" font-size="13px" font-weight="500" fill="#D4537E">Eva</text>
<path d="M 70.0 145.0 L 393.9 145.0 C 428.3 145.0, 441.6 145.0, 446.9 145.0 C 452.2 145.0, 465.4 145.0, 499.9 145.0 L 710.0 145.0" fill="none" stroke="#378ADD" stroke-width="1.5" stroke-linejoin="round" marker-end="url(#arrow)"/>
<text x="62" y="145" text-anchor="end" dominant-baseline="central" font-family="sans-serif" font-size="13px" font-weight="500" fill="#378ADD">Adam</text>
<path d="M 70.0 240.0 L 393.9 240.0 C 428.3 240.0, 441.6 145.0, 446.9 145.0" fill="none" stroke="#888780" stroke-width="2" stroke-linejoin="round"/>
<text x="62" y="240" text-anchor="end" dominant-baseline="central" font-family="sans-serif" font-size="13px" font-weight="500" fill="#888780">Origin</text>
<path d="M 393.6 240.0 C 398.9 240.0, 428.0 335.0, 446.6 335.0 L 710.0 335.0" fill="none" stroke="#1D9E75" stroke-width="1.5" stroke-linejoin="round" marker-end="url(#arrow)"/>
<text x="62" y="335" text-anchor="end" dominant-baseline="central" font-family="sans-serif" font-size="13px" font-weight="500" fill="#1D9E75">Paradise</text>
<line x1="98.4" y1="145.0" x2="215.8" y2="145.0" stroke="#378ADD" stroke-width="5" stroke-linecap="round" opacity="0.35"/>
<text x="157.1" y="159.0" text-anchor="middle" font-family="sans-serif" font-size="8px" font-style="italic" letter-spacing="0.5" fill="#378ADD" opacity="0.75">Sic Mundus</text>
<line x1="567.8" y1="145.0" x2="685.1" y2="145.0" stroke="#378ADD" stroke-width="5" stroke-linecap="round" opacity="0.35"/>
<text x="626.4" y="159.0" text-anchor="middle" font-family="sans-serif" font-size="8px" font-style="italic" letter-spacing="0.5" fill="#378ADD" opacity="0.75">Post-Apocalypse</text>
<line x1="567.8" y1="50.0" x2="681.6" y2="50.0" stroke="#D4537E" stroke-width="5" stroke-linecap="round" opacity="0.35"/>
<text x="624.7" y="64.0" text-anchor="middle" font-family="sans-serif" font-size="8px" font-style="italic" letter-spacing="0.5" fill="#D4537E" opacity="0.75">Erit Lux</text>
<path d="M 446.8888888888889 145 Q 388.22222222222223 181, 329.55555555555554 145" fill="none" stroke="#378ADD" stroke-width="1.2" stroke-dasharray="3 2" opacity="0.85"/>
<line x1="329.55555555555554" y1="140" x2="329.55555555555554" y2="150" stroke="#378ADD" stroke-width="2" stroke-linecap="round"/>
<text x="329.55555555555554" y="160" text-anchor="middle" font-family="sans-serif" font-size="9px" fill="#888780" opacity="0.85">1953</text>
<path d="M 446.8888888888889 145 Q 505.55555555555554 181, 564.2222222222222 145" fill="none" stroke="#378ADD" stroke-width="1.2" stroke-dasharray="3 2" opacity="0.85"/>
<line x1="564.2222222222222" y1="140" x2="564.2222222222222" y2="150" stroke="#378ADD" stroke-width="2" stroke-linecap="round"/>
<text x="564.2222222222222" y="160" text-anchor="middle" font-family="sans-serif" font-size="9px" fill="#888780" opacity="0.85">2019</text>
<path d="M 446.8888888888889 144.99999999999977 Q 505.55555555555554 133.4999999999999, 564.2222222222222 50" fill="none" stroke="#D4537E" stroke-width="1.2" stroke-dasharray="3 2" opacity="0.85"/>
<line x1="564.2222222222222" y1="45" x2="564.2222222222222" y2="55" stroke="#D4537E" stroke-width="2" stroke-linecap="round"/>
<text x="564.2222222222222" y="65" text-anchor="middle" font-family="sans-serif" font-size="9px" fill="#888780" opacity="0.85">2019</text>
<path d="M 446.8888888888889 144.99999999999977 Q 564.2222222222222 133.4999999999999, 681.5555555555555 50" fill="none" stroke="#D4537E" stroke-width="1.2" stroke-dasharray="3 2" opacity="0.85"/>
<line x1="681.5555555555555" y1="45" x2="681.5555555555555" y2="55" stroke="#D4537E" stroke-width="2" stroke-linecap="round"/>
<text x="681.5555555555555" y="65" text-anchor="middle" font-family="sans-serif" font-size="9px" fill="#888780" opacity="0.85">2052</text>
<path d="M 446.8888888888889 145.00000000000026 Q 420.22222222222223 173.83333333333343, 393.55555555555554 240" fill="none" stroke="#888780" stroke-width="1.2" stroke-dasharray="3 2" opacity="0.85"/>
<circle cx="393.55555555555554" cy="240" r="3.5" fill="none" stroke="#888780" stroke-width="1.5"/>
<text x="393.55555555555554" y="230" text-anchor="middle" font-family="sans-serif" font-size="9px" fill="#888780" opacity="0.85">1971</text>
<path id="travel-arc-0" d="M 564.2 145.0 Q 505.6 123.9, 446.9 145.0" fill="none" stroke="#A9D47D" stroke-width="1" stroke-dasharray="4 3" opacity="0.08"/>
<path id="travel-arrow-0" d="M 564.2 145.0 Q 534.9 134.4,505.6 134.4 Q 476.2 134.4,446.9 145.0" fill="none" stroke="#A9D47D" stroke-width="0.01" stroke-opacity="0" marker-mid="url(#arrow-mid)" display="none"/>
<path id="travel-arc-1" d="M 446.9 145.0 Q 505.6 166.1, 564.2 145.0" fill="none" stroke="#A9D47D" stroke-width="1" stroke-dasharray="4 3" opacity="0.08"/>
<path id="travel-arrow-1" d="M 446.9 145.0 Q 476.2 155.6,505.6 155.6 Q 534.9 155.6,564.2 145.0" fill="none" stroke="#A9D47D" stroke-width="0.01" stroke-opacity="0" marker-mid="url(#arrow-mid)" display="none"/>
<path id="travel-arc-2" d="M 564.2 145.0 Q 505.6 123.9, 446.9 145.0" fill="none" stroke="#A9D47D" stroke-width="1" stroke-dasharray="4 3" opacity="0.08"/>
<path id="travel-arrow-2" d="M 564.2 145.0 Q 534.9 134.4,505.6 134.4 Q 476.2 134.4,446.9 145.0" fill="none" stroke="#A9D47D" stroke-width="0.01" stroke-opacity="0" marker-mid="url(#arrow-mid)" display="none"/>
<path id="travel-arc-3" d="M 446.9 145.0 Q 564.2 187.2, 681.6 145.0" fill="none" stroke="#A9D47D" stroke-width="1" stroke-dasharray="4 3" opacity="0.08"/>
<path id="travel-arrow-3" d="M 446.9 145.0 Q 505.6 166.1,564.2 166.1 Q 622.9 166.1,681.6 145.0" fill="none" stroke="#A9D47D" stroke-width="0.01" stroke-opacity="0" marker-mid="url(#arrow-mid)" display="none"/>
<path id="travel-arc-4" d="M 685.1 145.0 Q 450.4 60.5, 215.8 145.0" fill="none" stroke="#A9D47D" stroke-width="1" stroke-dasharray="4 3" opacity="0.08"/>
<path id="travel-arrow-4" d="M 685.1 145.0 Q 567.8 102.8,450.4 102.8 Q 333.1 102.8,215.8 145.0" fill="none" stroke="#A9D47D" stroke-width="0.01" stroke-opacity="0" marker-mid="url(#arrow-mid)" display="none"/>
<path id="travel-arc-5" d="M 215.8 145.0 Q 390.0 207.7, 564.2 145.0" fill="none" stroke="#A9D47D" stroke-width="1" stroke-dasharray="4 3" opacity="0.08"/>
<path id="travel-arrow-5" d="M 215.8 145.0 Q 302.9 176.4,390.0 176.4 Q 477.1 176.4,564.2 145.0" fill="none" stroke="#A9D47D" stroke-width="0.01" stroke-opacity="0" marker-mid="url(#arrow-mid)" display="none"/>
<path id="travel-arc-6" d="M 567.8 145.0 Q 509.1 123.9, 450.4 145.0" fill="none" stroke="#A9D47D" stroke-width="1" stroke-dasharray="4 3" opacity="0.08"/>
<path id="travel-arrow-6" d="M 567.8 145.0 Q 538.4 134.4,509.1 134.4 Q 479.8 134.4,450.4 145.0" fill="none" stroke="#A9D47D" stroke-width="0.01" stroke-opacity="0" marker-mid="url(#arrow-mid)" display="none"/>
<path id="travel-arc-7" d="M 450.4 145.0 Q 509.1 166.1, 567.8 145.0" fill="none" stroke="#A9D47D" stroke-width="1" stroke-dasharray="4 3" opacity="0.08"/>
<path id="travel-arrow-7" d="M 450.4 145.0 Q 479.8 155.6,509.1 155.6 Q 538.4 155.6,567.8 145.0" fill="none" stroke="#A9D47D" stroke-width="0.01" stroke-opacity="0" marker-mid="url(#arrow-mid)" display="none"/>
<path id="travel-arc-8" d="M 567.8 145.0 C 506.0 145.0, 506.0 50.0, 564.2 50.0" fill="none" stroke="#c1e0a1" stroke-width="2.5" stroke-dasharray="5 4" opacity="0.18" filter="url(#travel-glow)"/>
<path id="travel-arrow-8" d="M 567.8 145.0 C 536.9 145.0,521.4 121.3,521.0 97.5 C 520.6 73.8,535.1 50.0,564.2 50.0" fill="none" stroke="#c1e0a1" stroke-width="0.01" stroke-opacity="0" marker-mid="url(#arrow-mid)" display="none" filter="url(#travel-glow)"/>
<path id="travel-arc-9" d="M 564.2 50.0 Q 622.9 71.1, 681.6 50.0" fill="none" stroke="#c1e0a1" stroke-width="1" stroke-dasharray="4 3" opacity="0.08"/>
<path id="travel-arrow-9" d="M 564.2 50.0 Q 593.6 60.6,622.9 60.6 Q 652.2 60.6,681.6 50.0" fill="none" stroke="#c1e0a1" stroke-width="0.01" stroke-opacity="0" marker-mid="url(#arrow-mid)" display="none"/>
<path id="travel-arc-10" d="M 681.6 50.0 Q 622.9 28.9, 564.2 50.0" fill="none" stroke="#c1e0a1" stroke-width="1" stroke-dasharray="4 3" opacity="0.08"/>
<path id="travel-arrow-10" d="M 681.6 50.0 Q 652.2 39.4,622.9 39.4 Q 593.6 39.4,564.2 50.0" fill="none" stroke="#c1e0a1" stroke-width="0.01" stroke-opacity="0" marker-mid="url(#arrow-mid)" display="none"/>
<path id="travel-arc-11" d="M 681.6 145.0 Q 622.9 123.9, 564.2 145.0" fill="none" stroke="#7a995a" stroke-width="1" stroke-dasharray="4 3" opacity="0.08"/>
<path id="travel-arrow-11" d="M 681.6 145.0 Q 652.2 134.4,622.9 134.4 Q 593.6 134.4,564.2 145.0" fill="none" stroke="#7a995a" stroke-width="0.01" stroke-opacity="0" marker-mid="url(#arrow-mid)" display="none"/>
<path id="travel-arc-12" d="M 564.2 145.0 Q 505.6 123.9, 446.9 145.0" fill="none" stroke="#7a995a" stroke-width="1" stroke-dasharray="4 3" opacity="0.08"/>
<path id="travel-arrow-12" d="M 564.2 145.0 Q 534.9 134.4,505.6 134.4 Q 476.2 134.4,446.9 145.0" fill="none" stroke="#7a995a" stroke-width="0.01" stroke-opacity="0" marker-mid="url(#arrow-mid)" display="none"/>
<path id="travel-arc-13" d="M 446.9 145.0 Q 505.6 166.1, 564.2 145.0" fill="none" stroke="#7a995a" stroke-width="1" stroke-dasharray="4 3" opacity="0.08"/>
<path id="travel-arrow-13" d="M 446.9 145.0 Q 476.2 155.6,505.6 155.6 Q 534.9 155.6,564.2 145.0" fill="none" stroke="#7a995a" stroke-width="0.01" stroke-opacity="0" marker-mid="url(#arrow-mid)" display="none"/>
<path id="travel-arc-14" d="M 564.2 145.0 Q 505.6 123.9, 446.9 145.0" fill="none" stroke="#7a995a" stroke-width="1" stroke-dasharray="4 3" opacity="0.08"/>
<path id="travel-arrow-14" d="M 564.2 145.0 Q 534.9 134.4,505.6 134.4 Q 476.2 134.4,446.9 145.0" fill="none" stroke="#7a995a" stroke-width="0.01" stroke-opacity="0" marker-mid="url(#arrow-mid)" display="none"/>
<path id="travel-arc-15" d="M 446.9 145.0 Q 505.6 166.1, 564.2 145.0" fill="none" stroke="#7a995a" stroke-width="1" stroke-dasharray="4 3" opacity="0.08"/>
<path id="travel-arrow-15" d="M 446.9 145.0 Q 476.2 155.6,505.6 155.6 Q 534.9 155.6,564.2 145.0" fill="none" stroke="#7a995a" stroke-width="0.01" stroke-opacity="0" marker-mid="url(#arrow-mid)" display="none"/>
<path id="travel-arc-16" d="M 567.8 145.0 Q 509.1 123.9, 450.4 145.0" fill="none" stroke="#7a995a" stroke-width="1" stroke-dasharray="4 3" opacity="0.08"/>
<path id="travel-arrow-16" d="M 567.8 145.0 Q 538.4 134.4,509.1 134.4 Q 479.8 134.4,450.4 145.0" fill="none" stroke="#7a995a" stroke-width="0.01" stroke-opacity="0" marker-mid="url(#arrow-mid)" display="none"/>
<path id="travel-arc-17" d="M 450.4 145.0 Q 509.1 166.1, 567.8 145.0" fill="none" stroke="#7a995a" stroke-width="1" stroke-dasharray="4 3" opacity="0.08"/>
<path id="travel-arrow-17" d="M 450.4 145.0 Q 479.8 155.6,509.1 155.6 Q 538.4 155.6,567.8 145.0" fill="none" stroke="#7a995a" stroke-width="0.01" stroke-opacity="0" marker-mid="url(#arrow-mid)" display="none"/>
<path id="travel-arc-18" d="M 567.8 145.0 Q 333.1 60.5, 98.4 145.0" fill="none" stroke="#7a995a" stroke-width="1" stroke-dasharray="4 3" opacity="0.08"/>
<path id="travel-arrow-18" d="M 567.8 145.0 Q 450.4 102.8,333.1 102.8 Q 215.8 102.8,98.4 145.0" fill="none" stroke="#7a995a" stroke-width="0.01" stroke-opacity="0" marker-mid="url(#arrow-mid)" display="none"/>
<path id="travel-arc-19" d="M 215.8 145.0 Q 391.8 208.4, 567.8 145.0" fill="none" stroke="#7a995a" stroke-width="1" stroke-dasharray="4 3" opacity="0.08"/>
<path id="travel-arrow-19" d="M 215.8 145.0 Q 303.8 176.7,391.8 176.7 Q 479.8 176.7,567.8 145.0" fill="none" stroke="#7a995a" stroke-width="0.01" stroke-opacity="0" marker-mid="url(#arrow-mid)" display="none"/>
<path id="travel-arc-20" d="M 567.8 145.0 Q 626.4 166.1, 685.1 145.0" fill="none" stroke="#7a995a" stroke-width="1" stroke-dasharray="4 3" opacity="0.08"/>
<path id="travel-arrow-20" d="M 567.8 145.0 Q 597.1 155.6,626.4 155.6 Q 655.8 155.6,685.1 145.0" fill="none" stroke="#7a995a" stroke-width="0.01" stroke-opacity="0" marker-mid="url(#arrow-mid)" display="none"/>
<path id="travel-arc-21" d="M 685.1 145.0 C 623.3 145.0, 623.3 50.0, 681.6 50.0" fill="none" stroke="#7a995a" stroke-width="2.5" stroke-dasharray="5 4" opacity="0.18" filter="url(#travel-glow)"/>
<path id="travel-arrow-21" d="M 685.1 145.0 C 654.2 145.0,638.8 121.3,638.3 97.5 C 637.9 73.8,652.4 50.0,681.6 50.0" fill="none" stroke="#7a995a" stroke-width="0.01" stroke-opacity="0" marker-mid="url(#arrow-mid)" display="none" filter="url(#travel-glow)"/>
<path id="travel-arc-22" d="M 564.2 50.0 Q 622.9 71.1, 681.6 50.0" fill="none" stroke="#A87DD4" stroke-width="1" stroke-dasharray="4 3" opacity="0.08"/>
<path id="travel-arrow-22" d="M 564.2 50.0 Q 593.6 60.6,622.9 60.6 Q 652.2 60.6,681.6 50.0" fill="none" stroke="#A87DD4" stroke-width="0.01" stroke-opacity="0" marker-mid="url(#arrow-mid)" display="none"/>
<path id="travel-arc-23" d="M 681.6 50.0 Q 622.9 28.9, 564.2 50.0" fill="none" stroke="#A87DD4" stroke-width="1" stroke-dasharray="4 3" opacity="0.08"/>
<path id="travel-arrow-23" d="M 681.6 50.0 Q 652.2 39.4,622.9 39.4 Q 593.6 39.4,564.2 50.0" fill="none" stroke="#A87DD4" stroke-width="0.01" stroke-opacity="0" marker-mid="url(#arrow-mid)" display="none"/>
<path id="travel-arc-24" d="M 564.2 50.0 C 626.0 50.0, 626.0 145.0, 567.8 145.0" fill="none" stroke="#A87DD4" stroke-width="2.5" stroke-dasharray="5 4" opacity="0.18" filter="url(#travel-glow)"/>
<path id="travel-arrow-24" d="M 564.2 50.0 C 595.1 50.0,610.6 73.8,611.0 97.5 C 611.4 121.3,596.9 145.0,567.8 145.0" fill="none" stroke="#A87DD4" stroke-width="0.01" stroke-opacity="0" marker-mid="url(#arrow-mid)" display="none" filter="url(#travel-glow)"/>
<path id="travel-arc-25" d="M 567.8 145.0 C 506.0 145.0, 506.0 50.0, 564.2 50.0" fill="none" stroke="#c0a1e0" stroke-width="2.5" stroke-dasharray="5 4" opacity="0.18" filter="url(#travel-glow)"/>
<path id="travel-arrow-25" d="M 567.8 145.0 C 536.9 145.0,521.4 121.3,521.0 97.5 C 520.6 73.8,535.1 50.0,564.2 50.0" fill="none" stroke="#c0a1e0" stroke-width="0.01" stroke-opacity="0" marker-mid="url(#arrow-mid)" display="none" filter="url(#travel-glow)"/>
<path id="travel-arc-26" d="M 564.2 50.0 C 241.3 50.0, 241.3 145.0, 98.4 145.0" fill="none" stroke="#c0a1e0" stroke-width="2.5" stroke-dasharray="5 4" opacity="0.18" filter="url(#travel-glow)"/>
<path id="travel-arrow-26" d="M 564.2 50.0 C 402.8 50.0,322.1 73.8,263.8 97.5 C 205.6 121.3,169.9 145.0,98.4 145.0" fill="none" stroke="#c0a1e0" stroke-width="0.01" stroke-opacity="0" marker-mid="url(#arrow-mid)" display="none" filter="url(#travel-glow)"/>
<path id="travel-arc-27" d="M 98.4 145.0 Q 391.8 250.6, 685.1 145.0" fill="none" stroke="#c0a1e0" stroke-width="1" stroke-dasharray="4 3" opacity="0.08"/>
<path id="travel-arrow-27" d="M 98.4 145.0 Q 245.1 197.8,391.8 197.8 Q 538.4 197.8,685.1 145.0" fill="none" stroke="#c0a1e0" stroke-width="0.01" stroke-opacity="0" marker-mid="url(#arrow-mid)" display="none"/>
<path id="travel-arc-28" d="M 567.8 145.0 C 506.0 145.0, 506.0 50.0, 564.2 50.0" fill="none" stroke="#795a99" stroke-width="2.5" stroke-dasharray="5 4" opacity="0.18" filter="url(#travel-glow)"/>
<path id="travel-arrow-28" d="M 567.8 145.0 C 536.9 145.0,521.4 121.3,521.0 97.5 C 520.6 73.8,535.1 50.0,564.2 50.0" fill="none" stroke="#795a99" stroke-width="0.01" stroke-opacity="0" marker-mid="url(#arrow-mid)" display="none" filter="url(#travel-glow)"/>
<path id="travel-arc-29" d="M 564.2 50.0 Q 622.9 71.1, 681.6 50.0" fill="none" stroke="#795a99" stroke-width="1" stroke-dasharray="4 3" opacity="0.08"/>
<path id="travel-arrow-29" d="M 564.2 50.0 Q 593.6 60.6,622.9 60.6 Q 652.2 60.6,681.6 50.0" fill="none" stroke="#795a99" stroke-width="0.01" stroke-opacity="0" marker-mid="url(#arrow-mid)" display="none"/>
<path id="travel-arc-30" d="M 681.6 50.0 Q 624.7 29.5, 567.8 50.0" fill="none" stroke="#795a99" stroke-width="1" stroke-dasharray="4 3" opacity="0.08"/>
<path id="travel-arrow-30" d="M 681.6 50.0 Q 653.1 39.8,624.7 39.8 Q 596.2 39.8,567.8 50.0" fill="none" stroke="#795a99" stroke-width="0.01" stroke-opacity="0" marker-mid="url(#arrow-mid)" display="none"/>
<path id="travel-arc-31" d="M 681.6 50.0 C 300.0 50.0, 300.0 145.0, 98.4 145.0" fill="none" stroke="#795a99" stroke-width="2.5" stroke-dasharray="5 4" opacity="0.18" filter="url(#travel-glow)"/>
<path id="travel-arrow-31" d="M 681.6 50.0 C 490.8 50.0,395.4 73.8,322.5 97.5 C 249.6 121.3,199.2 145.0,98.4 145.0" fill="none" stroke="#795a99" stroke-width="0.01" stroke-opacity="0" marker-mid="url(#arrow-mid)" display="none" filter="url(#travel-glow)"/>
<path id="travel-arc-32" d="M 471.8 145.0 Q 326.0 92.5, 180.2 145.0" fill="none" stroke="#795a99" stroke-width="1" stroke-dasharray="4 3" opacity="0.08"/>
<path id="travel-arrow-32" d="M 471.8 145.0 Q 398.9 118.8,326.0 118.8 Q 253.1 118.8,180.2 145.0" fill="none" stroke="#795a99" stroke-width="0.01" stroke-opacity="0" marker-mid="url(#arrow-mid)" display="none"/>
<path id="travel-arc-33" d="M 180.2 145.0 C 462.2 145.0, 462.2 50.0, 564.2 50.0" fill="none" stroke="#795a99" stroke-width="2.5" stroke-dasharray="5 4" opacity="0.18" filter="url(#travel-glow)"/>
<path id="travel-arrow-33" d="M 180.2 145.0 C 321.2 145.0,391.7 121.3,439.7 97.5 C 487.7 73.8,513.2 50.0,564.2 50.0" fill="none" stroke="#795a99" stroke-width="0.01" stroke-opacity="0" marker-mid="url(#arrow-mid)" display="none" filter="url(#travel-glow)"/>
<path id="travel-arc-34" d="M 564.2 50.0 Q 622.9 71.1, 681.6 50.0" fill="none" stroke="#795a99" stroke-width="1" stroke-dasharray="4 3" opacity="0.08"/>
<path id="travel-arrow-34" d="M 564.2 50.0 Q 593.6 60.6,622.9 60.6 Q 652.2 60.6,681.6 50.0" fill="none" stroke="#795a99" stroke-width="0.01" stroke-opacity="0" marker-mid="url(#arrow-mid)" display="none"/>
<line x1="567.8" y1="38.0" x2="567.8" y2="347.0" stroke="#D85A30" stroke-width="5" opacity="0.08"/>
<line x1="567.8" y1="38.0" x2="567.8" y2="347.0" stroke="#D85A30" stroke-width="1" opacity="0.55"/>
<text transform="rotate(-90,557.8,192.5)" x="557.8" y="192.5" text-anchor="middle" font-family="sans-serif" font-size="8px" font-style="italic" letter-spacing="0.5" fill="#D85A30" opacity="0.7">Apocalypse</text>
<line x1="98.4" y1="34.0" x2="98.4" y2="351.0" stroke="#C8A951" stroke-width="0.75" stroke-dasharray="2 5" opacity="0.38"/>
<text x="98.4" y="362.0" text-anchor="middle" font-family="sans-serif" font-size="7px" letter-spacing="0.5" fill="#C8A951" opacity="0.55">-3</text>
<line x1="215.8" y1="34.0" x2="215.8" y2="351.0" stroke="#C8A951" stroke-width="0.75" stroke-dasharray="2 5" opacity="0.38"/>
<text x="215.8" y="362.0" text-anchor="middle" font-family="sans-serif" font-size="7px" letter-spacing="0.5" fill="#C8A951" opacity="0.55">-2</text>
<line x1="329.6" y1="34.0" x2="329.6" y2="351.0" stroke="#C8A951" stroke-width="0.75" stroke-dasharray="2 5" opacity="0.38"/>
<text x="329.6" y="362.0" text-anchor="middle" font-family="sans-serif" font-size="7px" letter-spacing="0.5" fill="#C8A951" opacity="0.55">-1</text>
<line x1="446.9" y1="34.0" x2="446.9" y2="351.0" stroke="#C8A951" stroke-width="0.75" stroke-dasharray="2 5" opacity="0.38"/>
<text x="446.9" y="362.0" text-anchor="middle" font-family="sans-serif" font-size="7px" letter-spacing="0.5" fill="#C8A951" opacity="0.55">0</text>
<line x1="564.2" y1="34.0" x2="564.2" y2="351.0" stroke="#C8A951" stroke-width="0.75" stroke-dasharray="2 5" opacity="0.38"/>
<text x="564.2" y="362.0" text-anchor="middle" font-family="sans-serif" font-size="7px" letter-spacing="0.5" fill="#C8A951" opacity="0.55">+1</text>
<line x1="681.6" y1="34.0" x2="681.6" y2="351.0" stroke="#C8A951" stroke-width="0.75" stroke-dasharray="2 5" opacity="0.38"/>
<text x="681.6" y="362.0" text-anchor="middle" font-family="sans-serif" font-size="7px" letter-spacing="0.5" fill="#C8A951" opacity="0.55">+2</text>
<circle cx="446.8888888888889" cy="145" r="5" fill="#EF9F27"/>
<text x="446.8888888888889" y="177" text-anchor="middle" font-family="sans-serif" font-size="10px" font-weight="600" fill="#854F0B">Tannhaus Event</text>
<text x="446.8888888888889" y="188" text-anchor="middle" font-family="sans-serif" font-size="8px" fill="#854F0B" opacity="0.7">1986</text>
<circle cx="215.77777777777777" cy="145" r="3.5" fill="#EF9F27"/>
<text x="215.77777777777777" y="168" text-anchor="middle" font-family="sans-serif" font-size="9px" fill="#854F0B">Portal</text>
<text x="215.77777777777777" y="178" text-anchor="middle" font-family="sans-serif" font-size="8px" fill="#854F0B" opacity="0.7">1921</text>
<circle cx="685.1111111111111" cy="145" r="3.5" fill="#EF9F27"/>
<text x="685.1111111111111" y="168" text-anchor="middle" font-family="sans-serif" font-size="9px" fill="#854F0B">Portal</text>
<text x="685.1111111111111" y="178" text-anchor="middle" font-family="sans-serif" font-size="8px" fill="#854F0B" opacity="0.7">2053</text>
<circle cx="98.4" cy="145.0" r="3" fill="#378ADD" stroke="white" stroke-width="1.5" stroke-opacity="0.35"/>
<circle cx="105.6" cy="145.0" r="3" fill="#378ADD" stroke="white" stroke-width="1.5" stroke-opacity="0.35"/>
<circle cx="155.3" cy="145.0" r="3" fill="#378ADD" stroke="white" stroke-width="1.5" stroke-opacity="0.35"/>
<circle cx="176.7" cy="145.0" r="3" fill="#378ADD" stroke="white" stroke-width="1.5" stroke-opacity="0.35"/>
<circle cx="180.2" cy="145.0" r="3" fill="#378ADD" stroke="white" stroke-width="1.5" stroke-opacity="0.35"/>
<circle cx="404.2" cy="237.0" r="3" fill="#888780" stroke="white" stroke-width="1.5" stroke-opacity="0.35"/>
<circle cx="638.9" cy="145.0" r="3" fill="#378ADD" stroke="white" stroke-width="1.5" stroke-opacity="0.35"/>
<circle cx="681.6" cy="145.0" r="3" fill="#378ADD" stroke="white" stroke-width="1.5" stroke-opacity="0.35"/>
<circle cx="567.8" cy="335.0" r="3" fill="#1D9E75" stroke="white" stroke-width="1.5" stroke-opacity="0.35"/>
<g id="annot-0" display="none">
<rect x="65.0" y="101.0" width="130.0" height="34" rx="4" fill="black" opacity="0.2"/>
<path d="M 98.4 141 L 93.4 133 L 103.4 133 Z" fill="#1c1c1c"/>
<rect x="64.0" y="99.0" width="130.0" height="34" rx="4" fill="#1c1c1c"/>
<text x="129.0" y="113.0" text-anchor="middle" font-family="sans-serif" font-size="10px" font-weight="500" fill="#378ADD">Sic Mundus founded</text>
<text x="129.0" y="126.0" text-anchor="middle" font-family="sans-serif" font-size="9px" fill="rgba(255,255,255,0.45)">1888</text>
</g>
<g id="annot-1" display="none">
<rect x="65.0" y="101.0" width="136.0" height="34" rx="4" fill="black" opacity="0.2"/>
<path d="M 105.6 141 L 100.6 133 L 110.6 133 Z" fill="#1c1c1c"/>
<rect x="64.0" y="99.0" width="136.0" height="34" rx="4" fill="#1c1c1c"/>
<text x="132.0" y="113.0" text-anchor="middle" font-family="sans-serif" font-size="10px" font-weight="500" fill="#378ADD">Silja meets Bartosz</text>
<text x="132.0" y="126.0" text-anchor="middle" font-family="sans-serif" font-size="9px" fill="rgba(255,255,255,0.45)">1890</text>
</g>
<g id="annot-2" display="none">
<rect x="106.3" y="101.0" width="100.0" height="34" rx="4" fill="black" opacity="0.2"/>
<path d="M 155.3 141 L 150.3 133 L 160.3 133 Z" fill="#1c1c1c"/>
<rect x="105.3" y="99.0" width="100.0" height="34" rx="4" fill="#1c1c1c"/>
<text x="155.3" y="113.0" text-anchor="middle" font-family="sans-serif" font-size="10px" font-weight="500" fill="#378ADD">Hanno is born</text>
<text x="155.3" y="126.0" text-anchor="middle" font-family="sans-serif" font-size="9px" fill="rgba(255,255,255,0.45)">1904</text>
</g>
<g id="annot-3" display="none">
<rect x="127.7" y="101.0" width="100.0" height="34" rx="4" fill="black" opacity="0.2"/>
<path d="M 176.7 141 L 171.7 133 L 181.7 133 Z" fill="#1c1c1c"/>
<rect x="126.7" y="99.0" width="100.0" height="34" rx="4" fill="#1c1c1c"/>
<text x="176.7" y="113.0" text-anchor="middle" font-family="sans-serif" font-size="10px" font-weight="500" fill="#378ADD">Agnes is born</text>
<text x="176.7" y="126.0" text-anchor="middle" font-family="sans-serif" font-size="9px" fill="rgba(255,255,255,0.45)">1910</text>
</g>
<g id="annot-4" display="none">
<rect x="116.2" y="101.0" width="130.0" height="34" rx="4" fill="black" opacity="0.2"/>
<path d="M 180.2 141 L 175.2 133 L 185.2 133 Z" fill="#1c1c1c"/>
<rect x="115.2" y="99.0" width="130.0" height="34" rx="4" fill="#1c1c1c"/>
<text x="180.2" y="113.0" text-anchor="middle" font-family="sans-serif" font-size="10px" font-weight="500" fill="#378ADD">Jonas becomes Adam</text>
<text x="180.2" y="126.0" text-anchor="middle" font-family="sans-serif" font-size="9px" fill="rgba(255,255,255,0.45)">1911</text>
</g>
<g id="annot-5" display="none">
<rect x="325.2" y="193.0" width="160.0" height="34" rx="4" fill="black" opacity="0.2"/>
<path d="M 404.2 232.97775356722332 L 399.2 224.97775356722332 L 409.2 224.97775356722332 Z" fill="#1c1c1c"/>
<rect x="324.2" y="191.0" width="160.0" height="34" rx="4" fill="#1c1c1c"/>
<text x="404.2" y="205.0" text-anchor="middle" font-family="sans-serif" font-size="10px" font-weight="500" fill="#888780">Tannhaus begins machine</text>
<text x="404.2" y="218.0" text-anchor="middle" font-family="sans-serif" font-size="9px" fill="rgba(255,255,255,0.45)">1974</text>
</g>
<g id="annot-6" display="none">
<rect x="533.0" y="101.0" width="184.0" height="34" rx="4" fill="black" opacity="0.2"/>
<path d="M 638.9 141 L 633.9 133 L 643.9 133 Z" fill="#1c1c1c"/>
<rect x="532.0" y="99.0" width="184.0" height="34" rx="4" fill="#1c1c1c"/>
<text x="624.0" y="113.0" text-anchor="middle" font-family="sans-serif" font-size="10px" font-weight="500" fill="#378ADD">Claudia stabilizes particle</text>
<text x="624.0" y="126.0" text-anchor="middle" font-family="sans-serif" font-size="9px" fill="rgba(255,255,255,0.45)">2040</text>
</g>
<g id="annot-7" display="none">
<rect x="563.0" y="101.0" width="154.0" height="34" rx="4" fill="black" opacity="0.2"/>
<path d="M 681.6 141 L 676.6 133 L 686.6 133 Z" fill="#1c1c1c"/>
<rect x="562.0" y="99.0" width="154.0" height="34" rx="4" fill="#1c1c1c"/>
<text x="639.0" y="113.0" text-anchor="middle" font-family="sans-serif" font-size="10px" font-weight="500" fill="#378ADD">(Bunker) Jonas arrives</text>
<text x="639.0" y="126.0" text-anchor="middle" font-family="sans-serif" font-size="9px" fill="rgba(255,255,255,0.45)">2052</text>
</g>
<g id="annot-8" display="none">
<rect x="515.8" y="291.0" width="106.0" height="34" rx="4" fill="black" opacity="0.2"/>
<path d="M 567.8 331 L 562.8 323 L 572.8 323 Z" fill="#1c1c1c"/>
<rect x="514.8" y="289.0" width="106.0" height="34" rx="4" fill="#1c1c1c"/>
<text x="567.8" y="303.0" text-anchor="middle" font-family="sans-serif" font-size="10px" font-weight="500" fill="#1D9E75">Paradise party</text>
<text x="567.8" y="316.0" text-anchor="middle" font-family="sans-serif" font-size="9px" fill="rgba(255,255,255,0.45)">2020</text>
</g>
</svg>